<svg xmlns="http://www.w3.org/2000/svg" xmlns:xlink="http://www.w3.org/1999/xlink" width="1303.774" height="849.891" viewBox="0 0 1303.774 849.891">
  <defs>
    <filter id="IN" x="469.414" y="0" width="834.36" height="849.891" filterUnits="userSpaceOnUse">
      <feOffset dy="10" input="SourceAlpha"/>
      <feGaussianBlur stdDeviation="5" result="blur"/>
      <feFlood flood-opacity="0.251"/>
      <feComposite operator="in" in2="blur"/>
      <feComposite in="SourceGraphic"/>
    </filter>
  </defs>
  <g id="Group_2" data-name="Group 2" transform="translate(-85 -107.022)">
    <g transform="matrix(1, 0, 0, 1, 85, 107.02)" filter="url(#IN)">
      <path id="IN-2" data-name="IN" d="M800.91,1171.809l-.4.127-.276-.04-.146-.343.078-.256.353.294.473-.275.531-.874.127-.285.107.157-.107.5Zm-7.525-81.868-.206.177-.019-.511.255-.815.3-.54.088.059-.079.53-.147.717Zm163.736-614-.069-.108-1.62-2.406,1.689,2.515-.9,2.652.187,2.1,1.669,2.318,1.355,1.621-1.325,2.181-.786,2.525.884,1.129-.412,3.625.392.678.933.285,1.454-.245,1.109,1.768-1-1.591-.117-.176,1.513-.963,1.286-.187.767.275,1.021-2.741.9-.393,1.748.756,3.458,5.167,2.928,4.361.619.6.225.226.521.5,2.887,2.26,2,1.424,2.722-.51,3.6-.1,2.13,1.394,1.228.973.058.138.168.029h0l4.322,3.418,1.867-.255,1.237.982.354,2.407-.58,2.5.137,1.179,1.926.226,4.1,1.65,3.616,1.464,1.875.461,2.015,1.081,1.787,1.729,3.488,2.22,3.085,1.7.678,2.3-1.218-.491-1.612.255-1.64,1.022-.776.648-3.742,3.959-1.965,1.218-1.759,1.778-4.057,5.354-2.348,4.991-1.71,4.685.03,3.311-.629,3.88-1.748,2.21-1.07.747-1.268,3.33-.914,3.88.531,1.257,2.18,1.689,2.122,1.65,2.7,1.788,2.594,1.7,1.67.216.461-.963.609-.924,1.905.491,2.319,1.66,1.513,1.327.668.442,4.008,2.23,3.32,1.837,4.2,2.328,1.022,1.424.9,1.513,1.984,2,4.824,3.546,4.125,2.545,3.36,2.063,2.633,1.444,1.218-.226,1.336-.776,1.17-.443,1.365.413,2.063,1.1,4.843,3.36,4.519,2.623,4.92-.472,1.306.422.925,2.377.617,2.406,5.5,1.591,3.616.718,4.136,1.306,2.092.973,2.2-1.218.4-1.071,1.739-.629,2.887.275,5.383,1.867,2.25.56,1.886-1.768,3.507-.815,1.837-.923,3.83,1.965,6.916,2.456,3.566,1.532.845,1.5.383,1.424-.03,3.457.874,1.563,6.936,3.507,2.29,1.483,1.846.482,1.042.059.717.443.619,1.994.49.462,1.336.49,1.454.285,4.51-1.729,3.084-1.307,2.2.334,1.425,1.454.207,2.122.825,2.24,1.572,1.09,1.689.118,4.185-1.513,3.37,1.16,3.085.422,3.438.727,1.336.55,3.555,1.847,4.353,1.867,1.68-.207,7-3.477.6.422,1.425,3.32,2.131,1.189,3.33,1.041,3.476-1.916,2.742.55,3.32.177,3.183-.923,2.761-.236,4.017,1.67.885-.383.765-1.07,1.562-4.794,1.386-4.243-.128-2.534L1216,632.13l-3.252-4.853-.236-1.473,1.091-8.477,1.208-4.9,1.032-2.319,1.14-3.31.206-1.533-.117-1.385-1.11-.844-.294-1.051.274-.884.884-.491,3.693-.618,4.165-1.326,1.66-.707,1.247-.707,1.278-1.12,1.188.049,3.733,1.621,1.306,1.022.687,3.094.56,1.2-.49,3.144-2.24,7.6.441,2.839,1.857,2.073,1.62,1.444-.265.58-3.34,2.446-.6,1.307.736,1.277,1.326,1.08.6,1.032.619,3.2,1.7.9,3.359,2.063,2.956,1.5,5.079-1,1.435.677,2.5.707,1.946.216,1.129.53.628.511-.086.648.107.667,2.781.177,1.463.383,4.942-.688,4.96-.943,2.28-2.858,1.012-.206,2.848-1.11,2.809,1.218,3.086,1.66,1.668.5,3.292.265,3.2-.187,7.663-.8,4.214.412,3.87-2.377.8.009,1.7,1.837,4.253.167,2.259-.884,2.436-.677,1.552-.216,1.248-.02,1.5.177,1.425-.609.647-1.228-.148-1.857-1.021-2.024-.893-1.189-.177-.629.274-1.463.786-2.063,1.444-2.357-1.06-2.289-1.483-2.623-1.091-.255-2.75.609-2.977-.118-2.348-1.582-1.748-1.984-.423-1.66.511-2.034.776-1.866.168-.7h2.229l3.085.412,2.338.521,1.875-.02,3.41-2.4,1.552-.148,1.789-.452.774-.452.541.353,1.955.295,2.033-.118,1.817-.658,1.827-1.031,3.243-2.161.637-1.238v-1.14l-.609-.756-.618-.363.245-.992,1.365-1.67,4.962-2.515,4.225-3.1,2.318-2.328,1.06-2.819,1.345-3.065,1.259-1.208,2.994-.767,8.391-1.13,2.642-1.238,3.9-2.3,1.965-1.807,1.091-1.464.118-1.63,2.593-.511,2.26-2.643,2.741-2.662,4.822-2.25,4.274-3.026,1.482.481,1.552,1.434.826,1.581.177.806,5.462,1,.864-.157,4.018,1.415,3.7,1.709,2.044.422,1-.049.854-.53,1-1.5,1.022-1.09.638-.442-.029-1.729,5.363-3.379,4.813-2.426,4.146-1.768,1.219.727,1.346,1.346,1.837,3.428,1.11.835,2.81-.481.521.383-.443,1.228-1.906,1.523-2.475,1.365-1.612,1.121.531,3.723-.128,1.277.7.4,5.089-3.694,2.446-.727.874.894.265,1.975,2.013,4.067.856,2.063-5.118,4.912-1.876,2.534.069.894-.1.884-1.306,1.257.068.5,1.051.8,1.287.6.618-.019,1.062-1.189,4.823-1.679,1.386.314,3.4,2.574,1.572.147,4.077.766,2.611-.972,1.916.894,3.979,3.223.913.589-.333,1.955-.206,2.151,1.011,1.709.119,1.513-.226,1.385-.8.953-2.209.53-1.876,1.65-2.986,2.387-2.4,1.906-1.739,1.69-.629,1.768.2,2.23.5,2.327,5.56,8.527-.049,1.473-1.759.413-2.337-.963-2.014-1.375-2.271-3.655-1.826-1.09-1.818-.235-10.806,1.876-2.288.53-3.565,1.365-2.5,2.741-1.817,2.5-1.867,1.012-2.731,1.944-7.573,5.973-4.372,2.573-2.859.943-2,1.355-1.08,2.2-.815,1.582-.236,3.88.5,4.774,1.081,3.045.58.639.088.894-1.091,1.64-1.435,1.405-.7.864-.637,4.342-1.268,2.132-2.338,3.134-2.072,2.368-3.252,1.837-1.237,1.484-1.189,2.74-.7,2.318-.04.835.374.736,1.355.816,1.641.786.786,1.227.108,1.484-1.219,3.566-2.19,4.941-2.505,3.91-2.584,3.723-.618,1.218-2.319,4.568-2.022,6.277-1.366,4.214-1.179,2.888-1.453.127-1.759-.923-4.293-1.228-2.74-.992-1.995-.894-1.385.039-1.905.579-1.935.4-1.149-.432-2.663-2.6-.814.294-.521,1.267,1.8,7.427,1.169,2.76-.2,4.607-.461,5.649-.689,6.159-.461,1.425-1.14,1.63-1.5.443-1.365-.639-1.091.148-.362,1.031.314,2.662L1354,756.789l-.983,2.6.255,2.524.471,2.564,1.563,5.54.009,2.024-.305,1.818-.815.756-1.405-.128-.767.746-.579,1.14-1.583,4.194-1.512.443-1.524-.629-2.279-2.8-1.4-.816-.884.049-.392.737-.618,1.67-.62,1.12-1.524.983-.373-2.063-.815-10.728-.62-3.418-.5-4.745-.736-1.454-.944-2.6-1.042-2.25-.874-.953-.56-4.194-.206-5.138.01-2.436-1.229-5.04-1.2-5.717-1.621.236-.963-1.385-.7.029-2.279,1.287-1.816-.422-1.346.177-.01,2.632.225,2.8-.51,1.012-3.556,3.281-.992,2.2.1,2.308.441,3.084-.629,1.572-1.543,1.444-2.072.756-1.826-.354-1.169-1.257-1.091-3.2-.971-1.749-1.022-.412-.8.471-.107,2.014.059,1.66-.255.187-.57-.256-.647-.815-1.7-8.036-2.428-6.2-.146-2.377.884-3.065,1.091-4.725,2.879-2.947.373-1.247.471-.993.7-.2,3.693.275,1.237-.472,1.09-1.394,1.592-1.12,1.591-.452,1.268-.167,2.033,1.061.844-.609.618-1.964.885-1.945.57-.943,1.366-.422,1.738-.1.58-.364.472-.658.432-2.583,2.22-5.786.787-2.573.119-.452-.07-2.868.629-.413,3.684,1.4,1.611-.02.874-.579.285-1.051-.471-1.228-2.623-2.151-4.656-2.9-4.273-1.778-7.9.265-7.819.56-2.289-.285-2.858-.806-7.024.118-8.488.442L1285,685.9l-1.59.029-3.193.266-5.207-.826-3.605-1.06-3.193-1.17-3.792-1.051-.914.01-.53-.383-.364-.933-.128-1.208.786-5.6-.7-8.507.639-3.1-3.1-6.994-1.06-1.3-1.434-.059-.914.9-.364,1.64.521,1.837-1.14,2.044-2.289.658-2.673-.688-2.219-.963-2.86-2.083-2.15-2.937-.186-3.251-.973-2.093-1.326-1.022-.974-.285-.874.226-.766,1.14.668,1.13.915,1.592-.305,1.08-.816.167-1.217-.461-1.886.245-1.828-.825-1.089-.069-1.082-.3-.067-1.877-1.661-2.377-2.809-2.662-2.761-1.651-1.326.227-.668,1.817.158.678.971.334,1.4,1.051.3,1.1-.207.963-1.719,1.759-1.218,1.67-2.721,2.427-2.318,2.78-.609,2.1-.874,1.886L1215.3,664l.609,1.434,1.121.9,2.908.658,3.045,2.79,2.457,3.762,1.384,1.14,2.515,1.267,4.844.148.715,1.031.689,2.76.953.973,2.465,1.3.206.953-.6,1.1-1.091.865-2.014.551-1.916.216-1.925-.354-2.858-.216-3.242-.02-2.3,6.866-1.641,2.407h-.934l-2.5-1.169-1.071.187-2.888,6.09-.4,1.464-.2,1.1,1.532,2.348,1.838,1.935,2.191.757,1.719-.579,1.395.776,1.632,1.945,2.8,1.287,3.96.619,2.249,1.533.275,1.326-.2,1.346-.353,3.5-.384,2.014-2.13,5.285-1.524,4.548.787,2.161.569.884.541.678,1.709,1.7,1.189,1.68-1.021,4.293.559,1.13,2.289.756,2.466.58.865.707-2.141,4.352.452,3.026.9,2.839.648,4.637.1.491-.177,1.159,1.406,3.6,2.17,7,.168,2.613-.127,2.76-.639,4.607-2.172-.021,1.936,3.075.618,2.21.266,3.085-2.328.383-1.651-.344-1.376-2.7L1236,790.63l-2.455,2.269-.885-1.11-.511-1.189-.1-2.1,1.355-8.026-.275-.9-.609-.6-1.346-.324-.5-1.631-2.053,8.566.9,3.5-.413,1.592-3.831,1.336-3.88-3.212-.491-1.031-.226,1.807-.7,2.2-3.635-.4-1.8-1.719,1.168-2.927,2.25-7.073.422-3.153-3.015-2.318-2.555-1.424-1.463-3.222.56,3.536,1.365,1.257,1.985.884,2.1,1.808-1.513,2.2-1.473,1.365-2.82,5.187-3.437,2.9-4.009,2.181-13.163,3.2-2.762,1.3-4.037,3.989-2.614,3.782-.48,3.832,1.473,4.135,1.2,6.464,1,1.316-1.405,2.357-2.446,2.5-2.024,3.37.187,1.847-.52,1.248-6.936,4.135-1.453,2.417-1.906,2.4-2.279-1.375-1.336.019,1.838,1.906-.236,1.258-.649.737-1.748.688-10.02,3.036-7.663,2.878-2.151-.118.392-.874,1.346-.776-.137-3.3-1.4-.609-1.218-.236-5.836,4.028-2.357,3.978.491.757,1.325-.187,3.92-2.25,1.828.638.127.884-5.953,3.438-12.526,11.12-.589,2.19-1.631,2.475-2.249,2.328-4.038,5.628-7.74,8.36-2.153,3.114-12.4,6.424-2.258,1.906-5.089,6.248-5.225,5.108-6.1,4.234-10.58,5.393-6.435,5.1-2.014,3.389-.127,1.208.687,1.641,1.179,1.532.265,1.218-.58,2.181-.313,1.208-1.886,2.986-3.232,2.132-10.462,4.451-1.385-.138-8.536-.884-3.193.806-1.316,2.082-2.937,8.616-2.81,2.288-1.012,2.073-.4,1.434-1.689-.039-1.454-.638-1.06.461-1.219-2.888-2.043-.59-1.689-.206-7.211,2.908-2.525,2.337-5.3,11.012-1.315,7.093,1.247,7.819,1.848,6.238.363,2.819-.226,3.654-.943,1.778-.668,2.1.885,4.333,2.229,5.667.541,2.4.049,2.465,1.68,5.658-1.13-1.022-.894-2.387-2.122-3.045-2.6,3.035,1.434,2.181,4.853,2.593,1.435,2.122-3.125,18.871-2.367,6.69-2.908,4.382L991.956,1061l-3.448,6.955-2.4,8.359-.483,3.213,1.082,3.6-1.228,2.122-1.533,1.621,2.917-.727,1,1.945.373,2.014.04,11.945-.324,12.436-2.25.511-2.466.128-2.18-.354-1.561-.481-3.891.658-2.092,1.376-1.68,2.279.118,3.891-7.212,9.784-1.552,3.261-.569,3.134.932,1.641,1.847,1.679,2.406.678,4.648.678,2.229.894,1.513,1.66-5.472-1.768-6.434-.354-15.383,4.538-4.047,3.183-2.259,2.76-1.553,6.307-.265,4.214-1.826,3.507-7.988,5.384-5.048,1.66-1.917,1.434-5.953-1.856-6.493-4.715-2.732-2.534-9.636-12.181-1.758-1.542-1.947-5.216-.3-1.946-.539-.776-.915-.53-.441-.805-2.171-5.973-.885-6.228-1.384-6.964,1.159.481,1.611,2.289.8,3.33.1,4.656,1.208.54,1.081-.442-3.094-10.727-2.692-2.662-.708-.177-.757-1.719-.079-2.161.236-1.022-2.151-3.516-.757-2.092-4.775-10.639-2.151-7.633-3.33-8.5-2.151-2.977-3.348-6.562-2.81-3.055-2.976-4.1-2.339-1.817-.913-.953-6.926-14.215-2.132-7.868-1.808-3.713-.894-2.829-2.427-12.092-.019-2.161-.3-2.367-1.728-5.128-3.036-5.55-.874-3.458.01-1.345-1.926-5.4-.413-2.466-1.3-2.279-1.512-2.092-1.572-1.68-3.7-5.481-1.326-1.336-2.525-3.556-1.8-6.572-2.3-2.573h3.613l-2.209-2.436-1.042-1.591-1.159-.982,1.68-2.456-2.75.069L818.2,963l-2-4.617-3.624-5.227-.619-2.789-3.2-8.792-2.712-21.15-2.484-9.44.2-2.711-3.007-8.193-1.463-5.5-.6-4.666-.8-3.065-.717-6.091-1.15-1.925-.129-1.159.767-2.78,2.151-4.293.8-2.721-.933-3.832-1.955,4.027L794.9,869.2l-.875-3.006-.009-4.047-.226-.972.482-1.356,4.832.619-5.5-2.485-.649-1.454-.207-1.09,1.179-2.013-2-1.7-.806-5.207-.59-1.188-.225-.963,1.14-7.2,4.735-14.175.354-3.213-.413-4.568-1.052-3.634-.451-3.851-.285-.992-1.719-.354-1.63-1.424-1.886-5.717,1.728-1.877,1.336-1.031-1.837.432-1.512-.177,2.867-2.642,2.565-2.024,5.844-2.348,2.484-1.5-3.674,1.356-3.851.511-8.172-.276,1.365-5.344,1.425-1.788,1.541-1-2.269.3-2.633-.423.845-5.432,2.073-1.179,2.23-.227,2.77-.776-2.966-.894-3.075-.432-3.7.894-3.4-.658-4.136.01,1.652.727,1.767,1.651-.884,2.947-.835,1.837-2.269,1.267-1.858,1.916-.52,1.68-1.052,1.179,1.818.835,1.865.6,1.081,1.366,1.276,1.974-.069,3.841-4.891,9.028-1.691,2.013L760.08,810.99l-4.8,2.956-10.255,3.842-3.989.717-4.42-.766-6.465-2.918-9.862-7.475-2.564-2.466-7.887-9.617-5.688-5.1-4.314-4.745-5.344-4.5-5.039-6.071-1.07-2.77.373-2.819,1.875-1.532,2.2.619,1.739,2.377,1.228,1.06,1.031.433,7.525-3.645,2.918.148,2-1.827,2.523.4,5.147-2.849,2.162-.177,2.574-.57,4.144-7.22,3.1-4.6,2.014-.963-.118-1.12-.56-1.464-1.5.373-1.05,1.4-.776,1.69-.786,1.012-2.435-.933-1.641.157-2.023.55-7.4,2.691-3.045,2.417-2.064.482-11.817-2.662-11.553-6.11L679.3,745.33l-3.075-5.2-3.074-6.2,1.011-1.739,4.775-3.733,4.125-2.937-3.7,1.307-4.008,1.817-1.983,1.267-2.251,2.662-2.987.6-1.179-3.949-.746-3.851,1.905-1.3,1.337-.816,2.711-.688,2.967-.491,2.691.02,3.8.06.108-9.038.314-.8.54-.462.618-.2.521.137.775,1.356.973-.078,1.031-.786,2.3.589,1.846-.4,1.866.53,3.183.01,5.747-.216,3.193.068,2.064,1.434,2.258,1.581,2.447.226,3.547-.187,2.406-.609,1.219-1.473.914-1.415,5.255-2.063,5.521-1.68,1.591-.187.5.982-.246,1.641.638,1.562,2.22.992,1.562.245,1.4-.226,1.042-.5,2.24-2.456,1.159-.56,1.5.039,1.69-1.179.029-.9-1.07-.432-.914-1.3.177-1.051-.265-1.493.187-1.415.718-1.061,1.256-1.022-.746-2.112-1.925-4.047L741,689.032l-2.132-4.322-2.7-3.792-1.395-2.79.148-6.159-.236-1.248-.933-.766-1.248-.422-1.759.628-1.58.118-3.4-.138-1.67-.628-4.539-6.2-.6-2.436-.02-2.505,1.5-4.361.462-4.067.206-3.792-.245-1.071-.914-1.277-1.524-.943-4.076-.226-4.842-1.257-3.723-2.21-2.593-1.336-.7-.874-.313-1.021.677-4.608,1.168-5.2.854-1.591,1.474-1.65,1.091-1.12,1.748-1.483,4.725-4.971,4.235-6.846,2.623-4.784,1.366-1.424,1.395-1.218,2.033-1.473,2.358-1.346,2.337.059,2.22,1.228,1.651,1.434.559,3.173,1.17,2.053,1.258,1.238,1.669.6,2.133-.147,8.537-3.635,2.908-.736,6.975-.452,4.784-1.4,4.233-1.474.521-2.642,1.631-4.038,4.969-5.266,1.405-2.348,1.5-4.5,1.6-4.106,1.384-1.71,7.821-4.518,7.652-4.155,1.256-1.886,4.952-8.645,2.83-5.884.737-1.9,1.64-5.118,1.779-5.107,2.357-1.189,5.256-1.945,4.165-1.906,2.141-2.181,1.287-1.906-.236-1.886-1.149-2.24.235-1.336.207-1.317,3.035-2.682,5.687-7.947,3.418-3.978h1.13l3.566-2.122,3.388-2.4-.2-1.09-.422-1.414-1.944-.629-.62-1.7.48-2.436,1.632-6.552-.334-1.886-1.984-6.091.441-1.68.815-1.728,2.22-2.3,2.859-1.916,9.156-4.538,1.856-.5,3.174-1.15,1.945-2.426.235-2.073-.854-1.286-1.9-1.729-3.567-1.562-3.222-1.366-5.47.147L846,456.238l-.775-.815-.393-2.888.55-4.892-.854-.432-1.219.579-2.889-.579-3.546.068-1.355-1.365.667-1.64-.206-2.191L835.446,440l-.551-.432-1.7-.5-2.641-1.807-2.132-2.23-1.248-1.513-.384-1.041.119-.687,1.553-1.935,1.845-2.721.678-2.338.206-1.7-.521-1.248-1.7-1.533-1.817-1.345-.728-1.169-.029-1.768.677-2.21,2.132-1.67,3.782-1.582.981-1.964-.127-1.454-1.031-.432-2.662-.01-4.479-.5-.757-.806-.51-1.08-.011-1.071.954-1.218,1.14-1.542-.207-1.5-1.317-1.7-3.153-1.238-.432-1.759.49-1.463,1.042-2.093.913-1.454,2.152-4.145,2.612-.9,3.2-1.345,3.536-1.484,5.453,1.11,2.651.55,5.364,1.267,4.5,1.061,4.6.3,1.906-.079,2.1,1.257,5.2,2.152,4.225,1.13,2.859-.01,4.213-1.906,2.1-1.748,2.832-1.915,3.625.078,7.838-2.956,1.464.51,2.329.167,2.809-1.709,1.444-2.024.226-1.022.7-.747,3.006-1.286,3.016-1.788.816-2.357.5-1.6,3.3-2.062,3.438-2.151,3.6-2.25,4.086-2.564,3.458-2.171,2.829-1.778.315.383,1.11.806,1.2.393,1.405-.756,1.759-.628.923.354.127,1.021-1.05,4.794.087,1.877,1.759,3.9,2.28,6.317,2.141,5.913,1.258,3.871,1.247,1.582,5.2,1.621,4.282,1.326,2.543,2.171,2.81,2.083,1.965,1.277.932,1.641.2,1.473-.177.993-1.071,1.306-4.933,3.36L957.522,405l-.146,1.4.972,4.155.609,2.6.176,5.226.325,4.961,1.749,2.26,1.434,1.454.875,1.316,1.768,1.817,1.483,1.346,1.267.8.62,1.778-.364,2.092-.53,1.818.166.982,1.022.7,1.562,1.817.206,2.652-.107,1.827.619,1.64.167,1.818-.482,4.529.079,2.043-1.365.128-1.17.7L966.8,459.7l-1.917.746-2.171.226-2.239-1.748-1.838-1.828-.5-1.012-.461-1.926-.992-1.257-1.906.59-2.9.266-3.133.422-.58.422-.058.815.767,1.729.647,2.25.393,3.144.844,2.082.264.658,5.02,6.247,1.317,1.267.275.835-.519,2.309Z" transform="translate(-181.79 -351.86)" fill="#ffc60a"/>
    </g>
    <path id="Path_1" data-name="Path 1" d="M840,0S620.782,33.608,410.782,35.358,0,7,0,7" transform="translate(120.5 663.5)" fill="none" stroke="#ff8560" stroke-width="5"/>
    <path id="Path_2" data-name="Path 2" d="M0,414s73.527-93.543,109.777-197.043S145,0,145,0" transform="translate(960.5 249.5)" fill="none" stroke="#ff8560" stroke-width="5"/>
    <path id="Path_3" data-name="Path 3" d="M446,236S374.194,144.684,262.694,85.684,0,0,0,0" transform="translate(514.5 427.5)" fill="none" stroke="#ff8560" stroke-width="5"/>
    <path id="Path_4" data-name="Path 4" d="M588,318S520.016,172.022,373.016,92.522,0,0,0,0" transform="translate(372.5 345.5)" fill="none" stroke="#ff8560" stroke-width="5"/>
    <circle id="Ellipse_10" data-name="Ellipse 10" cx="18.5" cy="18.5" r="18.5" transform="translate(103 651)" fill="#ff914d"/>
    <circle id="Ellipse_11" data-name="Ellipse 11" cx="18.5" cy="18.5" r="18.5" transform="translate(496 409)" fill="#00c745"/>
    <circle id="Ellipse_12" data-name="Ellipse 12" cx="18.5" cy="18.5" r="18.5" transform="translate(354 327)" fill="#0a5fff"/>
    <circle id="Ellipse_13" data-name="Ellipse 13" cx="18.5" cy="18.5" r="18.5" transform="translate(1087 231)" fill="#ff1d0a"/>
    <text id="USA" transform="translate(85 729)" fill="#707070" font-size="40" font-family="Roboto-Regular, Roboto"><tspan x="0" y="0">USA</tspan></text>
    <text id="UAE" transform="translate(477 483)" fill="#707070" font-size="40" font-family="Roboto-Regular, Roboto"><tspan x="0" y="0">UAE</tspan></text>
    <text id="UK" transform="translate(277 354)" fill="#707070" font-size="40" font-family="Roboto-Regular, Roboto"><tspan x="0" y="0">UK</tspan></text>
    <text id="China" transform="translate(1058 211)" fill="#707070" font-size="40" font-family="Roboto-Regular, Roboto"><tspan x="0" y="0">China</tspan></text>
    <text id="Countries_are_subject_to_scale" data-name="Countries are subject to scale" transform="translate(1106 915)" fill="#707070" font-size="20" font-family="Roboto-Regular, Roboto"><tspan x="0" y="0">Countries are subject to scale</tspan></text>
    <circle id="Ellipse_14" data-name="Ellipse 14" cx="22" cy="22" r="22" transform="translate(929 632)" fill="#fff"/>
  </g>
</svg>
